<svg width="160" height="38" viewBox="0 0 160 38" fill="none" xmlns="http://www.w3.org/2000/svg">
<path fill-rule="evenodd" clip-rule="evenodd" d="M15.6667 10C12.1689 10 9.33335 12.8355 9.33335 16.3333C9.33335 19.8311 12.1689 22.6667 15.6667 22.6667C19.1645 22.6667 22 19.8311 22 16.3333C22 12.8355 19.1645 10 15.6667 10ZM15.6667 12C18.0599 12 20 13.9401 20 16.3333C20 18.7266 18.0599 20.6667 15.6667 20.6667C13.2735 20.6667 11.3334 18.7266 11.3334 16.3333C11.3334 13.9401 13.2735 12 15.6667 12ZM24.6602 30.7101C24.5086 27.3469 21.734 24.6667 18.3334 24.6667H13L12.7101 24.6732C9.34688 24.8247 6.66669 27.5994 6.66669 31V33.6667L6.67582 33.8024C6.74203 34.2905 7.16043 34.6667 7.66669 34.6667C8.21897 34.6667 8.66669 34.219 8.66669 33.6667V31L8.67355 30.7541C8.80103 28.4753 10.6893 26.6667 13 26.6667H18.3334L18.5793 26.6735C20.8581 26.801 22.6667 28.6893 22.6667 31V33.6667L22.6758 33.8024C22.742 34.2905 23.1604 34.6667 23.6667 34.6667C24.219 34.6667 24.6667 34.219 24.6667 33.6667V31L24.6602 30.7101Z" fill="#212121"/>
<path fill-rule="evenodd" clip-rule="evenodd" d="M70.5413 8C70.9662 8 71.3351 8.26751 71.4612 8.64949L71.494 8.78085L72.4317 14.2298H91.1453C91.6878 14.2298 92.1142 14.659 92.1113 15.1678L92.1014 15.2964L90.8136 24.0182L90.7687 24.196C90.0838 26.0803 88.242 27.3261 86.2447 27.3198L85.9943 27.3124L77.0347 27.3109C74.9737 27.424 73.0768 26.2582 72.2972 24.4282L72.2057 24.196L72.1641 24.0397L70.7061 15.5755L70.6816 15.528C70.649 15.4535 70.6261 15.374 70.6145 15.2911L70.6057 15.1643C70.6057 15.1213 70.6087 15.079 70.6145 15.0375L69.7223 9.86895H67.9658C67.4769 9.86895 67.0728 9.51739 67.0088 9.06128L67 8.93447C67 8.46139 67.3633 8.07041 67.8348 8.00853L67.9658 8H70.5413ZM90.0314 16.0988H72.7537L74.0517 23.6357L74.1112 23.7795C74.5652 24.7742 75.5786 25.4261 76.7449 25.4477L76.9801 25.4436L86.049 25.4451C87.2614 25.5116 88.3791 24.8406 88.8632 23.7795L88.9162 23.6469L90.0314 16.0988ZM72.151 31.9069C72.151 30.0145 73.7365 28.4805 75.6923 28.4805C77.6481 28.4805 79.2336 30.0145 79.2336 31.9069C79.2336 33.7992 77.6481 35.3333 75.6923 35.3333C73.7365 35.3333 72.151 33.7992 72.151 31.9069ZM77.3019 31.9068C77.3019 31.0466 76.5812 30.3493 75.6922 30.3493C74.8032 30.3493 74.0825 31.0466 74.0825 31.9068C74.0825 32.767 74.8032 33.4643 75.6922 33.4643C76.5812 33.4643 77.3019 32.767 77.3019 31.9068ZM82.453 31.9069C82.453 30.0145 84.0385 28.4805 85.9943 28.4805C87.9501 28.4805 89.5356 30.0145 89.5356 31.9069C89.5356 33.7992 87.9501 35.3333 85.9943 35.3333C84.0385 35.3333 82.453 33.7992 82.453 31.9069ZM87.604 31.9068C87.604 31.0466 86.8833 30.3493 85.9943 30.3493C85.1053 30.3493 84.3846 31.0466 84.3846 31.9068C84.3846 32.767 85.1053 33.4643 85.9943 33.4643C86.8833 33.4643 87.604 32.767 87.604 31.9068Z" fill="#212121"/>
<path fill-rule="evenodd" clip-rule="evenodd" d="M96 18C100.971 18 105 13.9706 105 9C105 4.02944 100.971 0 96 0C91.0294 0 87 4.02944 87 9C87 13.9706 91.0294 18 96 18Z" fill="#0D6EFD"/>
<path d="M98.4165 13H93.4263V11.9502L95.2183 10.1387C95.7489 9.59505 96.0956 9.21908 96.2583 9.01074C96.4211 8.79915 96.5383 8.60384 96.6099 8.4248C96.6815 8.24577 96.7173 8.06022 96.7173 7.86816C96.7173 7.58171 96.6376 7.36849 96.4781 7.22852C96.3218 7.08854 96.1118 7.01855 95.8482 7.01855C95.5715 7.01855 95.3029 7.08203 95.0425 7.20898C94.7821 7.33594 94.5103 7.5166 94.2271 7.75098L93.4068 6.7793C93.7583 6.47982 94.0497 6.26823 94.2808 6.14453C94.5119 6.02083 94.7642 5.92643 95.0376 5.86133C95.3111 5.79297 95.6171 5.75879 95.9556 5.75879C96.4016 5.75879 96.7954 5.84017 97.1372 6.00293C97.479 6.16569 97.7443 6.39355 97.9331 6.68652C98.1219 6.97949 98.2163 7.31478 98.2163 7.69238C98.2163 8.02116 98.1577 8.3304 98.0406 8.62012C97.9266 8.90658 97.7476 9.20117 97.5034 9.50391C97.2626 9.80664 96.8361 10.238 96.2241 10.7979L95.3062 11.6621V11.7305H98.4165V13Z" fill="white"/>
<path fill-rule="evenodd" clip-rule="evenodd" d="M132.25 13.6667C132.25 13.2525 132.586 12.9167 133 12.9167H154.333C154.748 12.9167 155.083 13.2525 155.083 13.6667C155.083 14.081 154.748 14.4167 154.333 14.4167H133C132.586 14.4167 132.25 14.081 132.25 13.6667ZM132.25 21.6667C132.25 21.2525 132.586 20.9167 133 20.9167H154.333C154.748 20.9167 155.083 21.2525 155.083 21.6667C155.083 22.081 154.748 22.4167 154.333 22.4167H133C132.586 22.4167 132.25 22.081 132.25 21.6667ZM133 28.9167C132.586 28.9167 132.25 29.2525 132.25 29.6667C132.25 30.081 132.586 30.4167 133 30.4167H154.333C154.748 30.4167 155.083 30.081 155.083 29.6667C155.083 29.2525 154.748 28.9167 154.333 28.9167H133Z" fill="#212121"/>
</svg>
