<svg width="76" height="24" viewBox="0 0 76 24" fill="none" xmlns="http://www.w3.org/2000/svg">
<path d="M11.276 7.2L7.006 17H5.214L0.93 7.2H2.904L6.166 14.76L9.456 7.2H11.276ZM12.2105 9.524H13.9605V17H12.2105V9.524ZM13.0925 8.292C12.7752 8.292 12.5092 8.194 12.2945 7.998C12.0798 7.79267 11.9725 7.54067 11.9725 7.242C11.9725 6.94333 12.0798 6.696 12.2945 6.5C12.5092 6.29467 12.7752 6.192 13.0925 6.192C13.4098 6.192 13.6758 6.29 13.8905 6.486C14.1052 6.67267 14.2125 6.91067 14.2125 7.2C14.2125 7.508 14.1052 7.76933 13.8905 7.984C13.6852 8.18933 13.4192 8.292 13.0925 8.292ZM23.2854 13.304C23.2854 13.4253 23.276 13.598 23.2574 13.822H17.3914C17.494 14.3727 17.76 14.8113 18.1894 15.138C18.628 15.4553 19.1694 15.614 19.8134 15.614C20.6347 15.614 21.3114 15.3433 21.8434 14.802L22.7814 15.88C22.4454 16.2813 22.0207 16.5847 21.5074 16.79C20.994 16.9953 20.4154 17.098 19.7714 17.098C18.95 17.098 18.2267 16.9347 17.6014 16.608C16.976 16.2813 16.4907 15.8287 16.1454 15.25C15.8094 14.662 15.6414 13.9993 15.6414 13.262C15.6414 12.534 15.8047 11.8807 16.1314 11.302C16.4674 10.714 16.9294 10.2567 17.5174 9.93C18.1054 9.60333 18.768 9.44 19.5054 9.44C20.2334 9.44 20.882 9.60333 21.4514 9.93C22.03 10.2473 22.478 10.7 22.7954 11.288C23.122 11.8667 23.2854 12.5387 23.2854 13.304ZM19.5054 10.84C18.9454 10.84 18.4694 11.008 18.0774 11.344C17.6947 11.6707 17.4614 12.1093 17.3774 12.66H21.6194C21.5447 12.1187 21.316 11.68 20.9334 11.344C20.5507 11.008 20.0747 10.84 19.5054 10.84ZM36.4916 9.524L33.7336 17H32.0536L30.1216 11.848L28.1616 17H26.4816L23.7376 9.524H25.3896L27.3636 15.04L29.4216 9.524H30.8916L32.9076 15.068L34.9376 9.524H36.4916ZM44.42 9.44C45.5213 9.44 46.3613 9.706 46.94 10.238C47.528 10.7607 47.822 11.554 47.822 12.618V17H46.17V16.09C45.9553 16.4167 45.6473 16.6687 45.246 16.846C44.854 17.014 44.378 17.098 43.818 17.098C43.258 17.098 42.768 17.0047 42.348 16.818C41.928 16.622 41.6013 16.356 41.368 16.02C41.144 15.6747 41.032 15.2873 41.032 14.858C41.032 14.186 41.2793 13.6493 41.774 13.248C42.278 12.8373 43.0667 12.632 44.14 12.632H46.072V12.52C46.072 11.9973 45.9133 11.596 45.596 11.316C45.288 11.036 44.826 10.896 44.21 10.896C43.79 10.896 43.3747 10.9613 42.964 11.092C42.5627 11.2227 42.222 11.4047 41.942 11.638L41.256 10.364C41.648 10.0653 42.1193 9.83667 42.67 9.678C43.2207 9.51933 43.804 9.44 44.42 9.44ZM44.182 15.824C44.6207 15.824 45.008 15.726 45.344 15.53C45.6893 15.3247 45.932 15.0353 46.072 14.662V13.794H44.266C43.258 13.794 42.754 14.1253 42.754 14.788C42.754 15.1053 42.88 15.3573 43.132 15.544C43.384 15.7307 43.734 15.824 44.182 15.824ZM50.0679 6.612H51.8179V17H50.0679V6.612ZM54.1148 6.612H55.8648V17H54.1148V6.612Z" fill="#212121"/>
<path d="M65.0625 11.4166C64.8209 11.4166 64.625 11.6125 64.625 11.8541C64.625 12.0756 64.7896 12.2587 65.0032 12.2877L65.0625 12.2916H73.2292C73.4708 12.2916 73.6667 12.0958 73.6667 11.8541C73.6667 11.6327 73.5021 11.4496 73.2886 11.4206L73.2292 11.4166H65.0625Z" fill="#212121"/>
<path d="M73.5385 11.5448C73.3832 11.3895 73.1402 11.3753 72.9689 11.5024L72.9198 11.5448L70.5865 13.8781C70.4156 14.049 70.4156 14.326 70.5865 14.4968C70.7418 14.6522 70.9849 14.6663 71.1561 14.5392L71.2052 14.4968L73.5385 12.1635C73.7094 11.9927 73.7094 11.7156 73.5385 11.5448Z" fill="#212121"/>
<path d="M71.2052 9.21145C71.0344 9.0406 70.7573 9.0406 70.5865 9.21145C70.4312 9.36678 70.4171 9.60983 70.5441 9.7811L70.5865 9.83017L72.9198 12.1635C73.0907 12.3344 73.3677 12.3344 73.5385 12.1635C73.6939 12.0082 73.708 11.7651 73.5809 11.5939L73.5385 11.5448L71.2052 9.21145Z" fill="#212121"/>
</svg>
