<svg width="194" height="32" viewBox="0 0 194 32" fill="none" xmlns="http://www.w3.org/2000/svg">
<path d="M11.25 19.66V22H1.494V9.4H11.016V11.74H4.392V14.476H10.242V16.744H4.392V19.66H11.25ZM19.4051 22L17.2811 19.03L15.0851 22H12.0251L15.7511 17.122L12.1511 12.316H15.3011L17.3531 15.142L19.4591 12.316H22.4471L18.8471 17.05L22.5911 22H19.4051ZM29.6782 12.172C30.5782 12.172 31.3942 12.382 32.1262 12.802C32.8702 13.21 33.4522 13.792 33.8722 14.548C34.2922 15.292 34.5022 16.162 34.5022 17.158C34.5022 18.154 34.2922 19.03 33.8722 19.786C33.4522 20.53 32.8702 21.112 32.1262 21.532C31.3942 21.94 30.5782 22.144 29.6782 22.144C28.4422 22.144 27.4702 21.754 26.7622 20.974V25.492H23.9542V12.316H26.6362V13.432C27.3322 12.592 28.3462 12.172 29.6782 12.172ZM29.1922 19.84C29.9122 19.84 30.5002 19.6 30.9562 19.12C31.4242 18.628 31.6582 17.974 31.6582 17.158C31.6582 16.342 31.4242 15.694 30.9562 15.214C30.5002 14.722 29.9122 14.476 29.1922 14.476C28.4722 14.476 27.8782 14.722 27.4102 15.214C26.9542 15.694 26.7262 16.342 26.7262 17.158C26.7262 17.974 26.9542 18.628 27.4102 19.12C27.8782 19.6 28.4722 19.84 29.1922 19.84ZM36.3819 8.644H39.1899V22H36.3819V8.644ZM46.404 22.144C45.384 22.144 44.466 21.934 43.65 21.514C42.846 21.082 42.216 20.488 41.76 19.732C41.304 18.976 41.076 18.118 41.076 17.158C41.076 16.198 41.304 15.34 41.76 14.584C42.216 13.828 42.846 13.24 43.65 12.82C44.466 12.388 45.384 12.172 46.404 12.172C47.424 12.172 48.336 12.388 49.14 12.82C49.944 13.24 50.574 13.828 51.03 14.584C51.486 15.34 51.714 16.198 51.714 17.158C51.714 18.118 51.486 18.976 51.03 19.732C50.574 20.488 49.944 21.082 49.14 21.514C48.336 21.934 47.424 22.144 46.404 22.144ZM46.404 19.84C47.124 19.84 47.712 19.6 48.168 19.12C48.636 18.628 48.87 17.974 48.87 17.158C48.87 16.342 48.636 15.694 48.168 15.214C47.712 14.722 47.124 14.476 46.404 14.476C45.684 14.476 45.09 14.722 44.622 15.214C44.154 15.694 43.92 16.342 43.92 17.158C43.92 17.974 44.154 18.628 44.622 19.12C45.09 19.6 45.684 19.84 46.404 19.84ZM56.2729 13.594C56.6089 13.126 57.0589 12.772 57.6229 12.532C58.1989 12.292 58.8589 12.172 59.6029 12.172V14.764C59.2909 14.74 59.0809 14.728 58.9729 14.728C58.1689 14.728 57.5389 14.956 57.0829 15.412C56.6269 15.856 56.3989 16.528 56.3989 17.428V22H53.5909V12.316H56.2729V13.594ZM70.6707 17.194C70.6707 17.23 70.6527 17.482 70.6167 17.95H63.2907C63.4227 18.55 63.7347 19.024 64.2267 19.372C64.7187 19.72 65.3307 19.894 66.0627 19.894C66.5667 19.894 67.0107 19.822 67.3947 19.678C67.7907 19.522 68.1567 19.282 68.4927 18.958L69.9867 20.578C69.0747 21.622 67.7427 22.144 65.9907 22.144C64.8987 22.144 63.9327 21.934 63.0927 21.514C62.2527 21.082 61.6047 20.488 61.1487 19.732C60.6927 18.976 60.4647 18.118 60.4647 17.158C60.4647 16.21 60.6867 15.358 61.1307 14.602C61.5867 13.834 62.2047 13.24 62.9847 12.82C63.7767 12.388 64.6587 12.172 65.6307 12.172C66.5787 12.172 67.4367 12.376 68.2047 12.784C68.9727 13.192 69.5727 13.78 70.0047 14.548C70.4487 15.304 70.6707 16.186 70.6707 17.194ZM65.6487 14.296C65.0127 14.296 64.4787 14.476 64.0467 14.836C63.6147 15.196 63.3507 15.688 63.2547 16.312H68.0247C67.9287 15.7 67.6647 15.214 67.2327 14.854C66.8007 14.482 66.2727 14.296 65.6487 14.296ZM82.3178 22.144C81.2858 22.144 80.3558 21.934 79.5278 21.514C78.7118 21.082 78.0698 20.488 77.6018 19.732C77.1458 18.976 76.9178 18.118 76.9178 17.158C76.9178 16.198 77.1458 15.34 77.6018 14.584C78.0698 13.828 78.7118 13.24 79.5278 12.82C80.3558 12.388 81.2858 12.172 82.3178 12.172C83.3378 12.172 84.2258 12.388 84.9818 12.82C85.7498 13.24 86.3078 13.846 86.6558 14.638L84.4778 15.808C83.9738 14.92 83.2478 14.476 82.2998 14.476C81.5678 14.476 80.9618 14.716 80.4818 15.196C80.0018 15.676 79.7618 16.33 79.7618 17.158C79.7618 17.986 80.0018 18.64 80.4818 19.12C80.9618 19.6 81.5678 19.84 82.2998 19.84C83.2598 19.84 83.9858 19.396 84.4778 18.508L86.6558 19.696C86.3078 20.464 85.7498 21.064 84.9818 21.496C84.2258 21.928 83.3378 22.144 82.3178 22.144ZM92.7575 22.144C91.7375 22.144 90.8195 21.934 90.0035 21.514C89.1995 21.082 88.5695 20.488 88.1135 19.732C87.6575 18.976 87.4295 18.118 87.4295 17.158C87.4295 16.198 87.6575 15.34 88.1135 14.584C88.5695 13.828 89.1995 13.24 90.0035 12.82C90.8195 12.388 91.7375 12.172 92.7575 12.172C93.7775 12.172 94.6895 12.388 95.4935 12.82C96.2975 13.24 96.9275 13.828 97.3835 14.584C97.8395 15.34 98.0675 16.198 98.0675 17.158C98.0675 18.118 97.8395 18.976 97.3835 19.732C96.9275 20.488 96.2975 21.082 95.4935 21.514C94.6895 21.934 93.7775 22.144 92.7575 22.144ZM92.7575 19.84C93.4775 19.84 94.0655 19.6 94.5215 19.12C94.9895 18.628 95.2235 17.974 95.2235 17.158C95.2235 16.342 94.9895 15.694 94.5215 15.214C94.0655 14.722 93.4775 14.476 92.7575 14.476C92.0375 14.476 91.4435 14.722 90.9755 15.214C90.5075 15.694 90.2735 16.342 90.2735 17.158C90.2735 17.974 90.5075 18.628 90.9755 19.12C91.4435 19.6 92.0375 19.84 92.7575 19.84ZM99.9444 8.644H102.752V22H99.9444V8.644ZM105.359 8.644H108.167V22H105.359V8.644ZM120.259 17.194C120.259 17.23 120.241 17.482 120.205 17.95H112.879C113.011 18.55 113.323 19.024 113.815 19.372C114.307 19.72 114.919 19.894 115.651 19.894C116.155 19.894 116.599 19.822 116.983 19.678C117.379 19.522 117.745 19.282 118.081 18.958L119.575 20.578C118.663 21.622 117.331 22.144 115.579 22.144C114.487 22.144 113.521 21.934 112.681 21.514C111.841 21.082 111.193 20.488 110.737 19.732C110.281 18.976 110.053 18.118 110.053 17.158C110.053 16.21 110.275 15.358 110.719 14.602C111.175 13.834 111.793 13.24 112.573 12.82C113.365 12.388 114.247 12.172 115.219 12.172C116.167 12.172 117.025 12.376 117.793 12.784C118.561 13.192 119.161 13.78 119.593 14.548C120.037 15.304 120.259 16.186 120.259 17.194ZM115.237 14.296C114.601 14.296 114.067 14.476 113.635 14.836C113.203 15.196 112.939 15.688 112.843 16.312H117.613C117.517 15.7 117.253 15.214 116.821 14.854C116.389 14.482 115.861 14.296 115.237 14.296ZM126.808 22.144C125.776 22.144 124.846 21.934 124.018 21.514C123.202 21.082 122.56 20.488 122.092 19.732C121.636 18.976 121.408 18.118 121.408 17.158C121.408 16.198 121.636 15.34 122.092 14.584C122.56 13.828 123.202 13.24 124.018 12.82C124.846 12.388 125.776 12.172 126.808 12.172C127.828 12.172 128.716 12.388 129.472 12.82C130.24 13.24 130.798 13.846 131.146 14.638L128.968 15.808C128.464 14.92 127.738 14.476 126.79 14.476C126.058 14.476 125.452 14.716 124.972 15.196C124.492 15.676 124.252 16.33 124.252 17.158C124.252 17.986 124.492 18.64 124.972 19.12C125.452 19.6 126.058 19.84 126.79 19.84C127.75 19.84 128.476 19.396 128.968 18.508L131.146 19.696C130.798 20.464 130.24 21.064 129.472 21.496C128.716 21.928 127.828 22.144 126.808 22.144ZM139.149 21.532C138.873 21.736 138.531 21.892 138.123 22C137.727 22.096 137.307 22.144 136.863 22.144C135.711 22.144 134.817 21.85 134.181 21.262C133.557 20.674 133.245 19.81 133.245 18.67V14.692H131.751V12.532H133.245V10.174H136.053V12.532H138.465V14.692H136.053V18.634C136.053 19.042 136.155 19.36 136.359 19.588C136.575 19.804 136.875 19.912 137.259 19.912C137.703 19.912 138.081 19.792 138.393 19.552L139.149 21.532ZM140.726 12.316H143.534V22H140.726V12.316ZM142.13 10.966C141.614 10.966 141.194 10.816 140.87 10.516C140.546 10.216 140.384 9.844 140.384 9.4C140.384 8.956 140.546 8.584 140.87 8.284C141.194 7.984 141.614 7.834 142.13 7.834C142.646 7.834 143.066 7.978 143.39 8.266C143.714 8.554 143.876 8.914 143.876 9.346C143.876 9.814 143.714 10.204 143.39 10.516C143.066 10.816 142.646 10.966 142.13 10.966ZM150.748 22.144C149.728 22.144 148.81 21.934 147.994 21.514C147.19 21.082 146.56 20.488 146.104 19.732C145.648 18.976 145.42 18.118 145.42 17.158C145.42 16.198 145.648 15.34 146.104 14.584C146.56 13.828 147.19 13.24 147.994 12.82C148.81 12.388 149.728 12.172 150.748 12.172C151.768 12.172 152.68 12.388 153.484 12.82C154.288 13.24 154.918 13.828 155.374 14.584C155.83 15.34 156.058 16.198 156.058 17.158C156.058 18.118 155.83 18.976 155.374 19.732C154.918 20.488 154.288 21.082 153.484 21.514C152.68 21.934 151.768 22.144 150.748 22.144ZM150.748 19.84C151.468 19.84 152.056 19.6 152.512 19.12C152.98 18.628 153.214 17.974 153.214 17.158C153.214 16.342 152.98 15.694 152.512 15.214C152.056 14.722 151.468 14.476 150.748 14.476C150.028 14.476 149.434 14.722 148.966 15.214C148.498 15.694 148.264 16.342 148.264 17.158C148.264 17.974 148.498 18.628 148.966 19.12C149.434 19.6 150.028 19.84 150.748 19.84ZM163.821 12.172C165.021 12.172 165.987 12.532 166.719 13.252C167.463 13.972 167.835 15.04 167.835 16.456V22H165.027V16.888C165.027 16.12 164.859 15.55 164.523 15.178C164.187 14.794 163.701 14.602 163.065 14.602C162.357 14.602 161.793 14.824 161.373 15.268C160.953 15.7 160.743 16.348 160.743 17.212V22H157.935V12.316H160.617V13.45C160.989 13.042 161.451 12.73 162.003 12.514C162.555 12.286 163.161 12.172 163.821 12.172Z" fill="#212121"/>
<path d="M178.375 15.1667C178.03 15.1667 177.75 15.4465 177.75 15.7917C177.75 16.1081 177.985 16.3696 178.29 16.411L178.375 16.4167H190.042C190.387 16.4167 190.667 16.1369 190.667 15.7917C190.667 15.4753 190.431 15.2138 190.126 15.1724L190.042 15.1667H178.375Z" fill="#212121"/>
<path d="M190.484 15.3497C190.262 15.1278 189.914 15.1077 189.67 15.2892L189.6 15.3497L186.266 18.6831C186.022 18.9271 186.022 19.3229 186.266 19.567C186.488 19.7888 186.835 19.809 187.08 19.6275L187.15 19.567L190.484 16.2336C190.728 15.9895 190.728 15.5938 190.484 15.3497Z" fill="#212121"/>
<path d="M187.15 12.0164C186.906 11.7723 186.51 11.7723 186.266 12.0164C186.044 12.2383 186.024 12.5855 186.206 12.8302L186.266 12.9003L189.6 16.2336C189.844 16.4777 190.239 16.4777 190.484 16.2336C190.705 16.0117 190.726 15.6645 190.544 15.4198L190.484 15.3497L187.15 12.0164Z" fill="#212121"/>
</svg>
